<svg xmlns="http://www.w3.org/2000/svg" xmlns:xlink="http://www.w3.org/1999/xlink" width="500" zoomAndPan="magnify" viewBox="0 0 375 374.999991" height="500" preserveAspectRatio="xMidYMid meet" version="1.0"><defs><clipPath id="7e201ab461"><path d="M 149 157 L 375 157 L 375 368.296875 L 149 368.296875 Z M 149 157 " clip-rule="nonzero"/></clipPath><clipPath id="271f9887c0"><path d="M 0 6.796875 L 346 6.796875 L 346 368.296875 L 0 368.296875 Z M 0 6.796875 " clip-rule="nonzero"/></clipPath></defs><path fill="#ffde59" d="M 27.628906 303 L 126.804688 303 L 126.804688 312.453125 L 27.628906 312.453125 Z M 27.628906 303 " fill-opacity="1" fill-rule="nonzero"/><path fill="#ffde59" d="M 27.628906 281.316406 L 126.804688 281.316406 L 126.804688 290.769531 L 27.628906 290.769531 Z M 27.628906 281.316406 " fill-opacity="1" fill-rule="nonzero"/><path fill="#ffde59" d="M 27.628906 324.683594 L 126.804688 324.683594 L 126.804688 334.136719 L 27.628906 334.136719 Z M 27.628906 324.683594 " fill-opacity="1" fill-rule="nonzero"/><path fill="#ffde59" d="M 26.09375 88.355469 L 35.546875 88.355469 L 35.546875 100.175781 L 26.09375 100.175781 Z M 26.09375 88.355469 " fill-opacity="1" fill-rule="nonzero"/><path fill="#ffde59" d="M 26.09375 111.992188 L 35.546875 111.992188 L 35.546875 123.8125 L 26.09375 123.8125 Z M 26.09375 111.992188 " fill-opacity="1" fill-rule="nonzero"/><path fill="#ffde59" d="M 35.847656 76.535156 L 35.847656 65.015625 L 26.09375 65.015625 L 26.09375 76.539062 L 35.546875 76.539062 Z M 35.847656 76.535156 " fill-opacity="1" fill-rule="nonzero"/><path fill="#ffde59" d="M 47.664062 65.015625 L 59.484375 65.015625 L 59.484375 74.472656 L 47.664062 74.472656 Z M 47.664062 65.015625 " fill-opacity="1" fill-rule="nonzero"/><path fill="#ffde59" d="M 71.300781 65.015625 L 83.121094 65.015625 L 83.121094 74.472656 L 71.300781 74.472656 Z M 71.300781 65.015625 " fill-opacity="1" fill-rule="nonzero"/><path fill="#ffde59" d="M 94.9375 65.015625 L 106.757812 65.015625 L 106.757812 74.472656 L 94.9375 74.472656 Z M 94.9375 65.015625 " fill-opacity="1" fill-rule="nonzero"/><path fill="#ffde59" d="M 118.574219 65.015625 L 130.394531 65.015625 L 130.394531 74.472656 L 118.574219 74.472656 Z M 118.574219 65.015625 " fill-opacity="1" fill-rule="nonzero"/><path fill="#ffde59" d="M 122.46875 188.640625 L 131.925781 188.640625 L 131.925781 200.460938 L 122.46875 200.460938 Z M 122.46875 188.640625 " fill-opacity="1" fill-rule="nonzero"/><path fill="#ffde59" d="M 27.625 237.980469 L 39.441406 237.980469 L 39.441406 247.4375 L 27.625 247.4375 Z M 27.625 237.980469 " fill-opacity="1" fill-rule="nonzero"/><path fill="#ffde59" d="M 51.261719 237.980469 L 63.078125 237.980469 L 63.078125 247.4375 L 51.261719 247.4375 Z M 51.261719 237.980469 " fill-opacity="1" fill-rule="nonzero"/><path fill="#ffde59" d="M 122.46875 212.277344 L 131.925781 212.277344 L 131.925781 224.097656 L 122.46875 224.097656 Z M 122.46875 212.277344 " fill-opacity="1" fill-rule="nonzero"/><path fill="#ffde59" d="M 131.925781 235.914062 L 122.171875 235.914062 L 122.171875 247.4375 L 131.925781 247.4375 Z M 131.925781 235.914062 " fill-opacity="1" fill-rule="nonzero"/><path fill="#ffde59" d="M 98.535156 237.980469 L 110.351562 237.980469 L 110.351562 247.4375 L 98.535156 247.4375 Z M 98.535156 237.980469 " fill-opacity="1" fill-rule="nonzero"/><path fill="#ffde59" d="M 74.898438 237.980469 L 86.714844 237.980469 L 86.714844 247.4375 L 74.898438 247.4375 Z M 74.898438 237.980469 " fill-opacity="1" fill-rule="nonzero"/><g clip-path="url(#7e201ab461)"><path fill="#ffde59" d="M 197.316406 292.15625 L 197.316406 296.882812 C 197.316406 307.578125 188.734375 316.300781 178.101562 316.53125 C 167.496094 316.308594 158.878906 307.511719 158.878906 296.886719 L 158.878906 157.320312 L 149.425781 157.320312 L 149.425781 296.886719 C 149.425781 312.546875 162.0625 325.519531 177.667969 325.976562 L 177.667969 326 C 177.792969 326 177.921875 325.992188 178.050781 325.988281 C 178.210938 325.996094 178.371094 326 178.535156 326 L 271.886719 326 L 271.886719 358.796875 L 200.335938 358.796875 L 200.335938 368.253906 L 281.339844 368.253906 L 281.339844 326 L 345.734375 326 C 361.785156 326 374.84375 312.9375 374.84375 296.882812 L 374.84375 292.15625 Z M 345.734375 316.542969 L 199.109375 316.542969 C 202.855469 312.460938 205.453125 307.3125 206.386719 301.609375 L 364.8125 301.609375 C 362.691406 310.175781 354.941406 316.542969 345.734375 316.542969 Z M 345.734375 316.542969 " fill-opacity="1" fill-rule="nonzero"/></g><g clip-path="url(#271f9887c0)"><path fill="#ffde59" d="M 9.535156 49.707031 L 271.886719 49.707031 L 271.886719 75.953125 L 149.425781 75.953125 L 149.425781 119.121094 L 158.878906 119.121094 L 158.878906 85.40625 L 336.363281 85.40625 L 336.363281 270.0625 L 345.820312 270.0625 L 345.820312 75.949219 L 281.339844 75.949219 L 281.339844 6.828125 L 0.078125 6.828125 L 0.078125 368.253906 L 184.359375 368.253906 L 184.359375 358.796875 L 9.535156 358.796875 Z M 252.171875 16.28125 L 271.886719 16.28125 L 271.886719 40.253906 L 252.171875 40.253906 Z M 223.628906 16.28125 L 242.71875 16.28125 L 242.71875 40.253906 L 223.628906 40.253906 Z M 9.535156 16.28125 L 214.171875 16.28125 L 214.171875 40.253906 L 9.535156 40.253906 Z M 9.535156 16.28125 " fill-opacity="1" fill-rule="nonzero"/></g><path fill="#ffde59" d="M 244.246094 255.257812 C 279.417969 255.257812 308.03125 226.644531 308.03125 191.472656 L 308.03125 186.746094 L 248.972656 186.746094 L 248.972656 127.6875 L 244.246094 127.6875 C 209.078125 127.6875 180.460938 156.300781 180.460938 191.472656 C 180.460938 226.644531 209.078125 255.257812 244.246094 255.257812 Z M 298.371094 196.199219 C 296.804688 214.3125 286.308594 229.90625 271.316406 238.558594 L 251.652344 196.199219 Z M 262.746094 242.546875 C 256.96875 244.644531 250.742188 245.800781 244.246094 245.800781 C 231.929688 245.800781 220.5625 241.675781 211.4375 234.742188 L 242.964844 199.933594 Z M 239.519531 137.347656 L 239.519531 189.648438 L 204.4375 228.390625 C 195.433594 218.691406 189.917969 205.71875 189.917969 191.472656 C 189.917969 163.109375 211.765625 139.75 239.519531 137.347656 Z M 239.519531 137.347656 " fill-opacity="1" fill-rule="nonzero"/><path fill="#ffde59" d="M 324.449219 175.371094 C 324.449219 140.199219 295.835938 111.585938 260.664062 111.585938 L 255.9375 111.585938 L 255.9375 180.097656 L 324.449219 180.097656 Z M 265.390625 170.644531 L 265.390625 121.246094 C 291.585938 123.511719 312.519531 144.449219 314.789062 170.644531 Z M 265.390625 170.644531 " fill-opacity="1" fill-rule="nonzero"/><path fill="#ffde59" d="M 183.113281 125.902344 C 191.648438 125.902344 198.589844 118.960938 198.589844 110.425781 C 198.589844 101.890625 191.648438 94.949219 183.113281 94.949219 C 174.582031 94.949219 167.636719 101.890625 167.636719 110.425781 C 167.636719 112.609375 168.097656 114.6875 168.917969 116.574219 L 135.957031 148.417969 C 133.410156 146.578125 130.296875 145.480469 126.921875 145.480469 C 122.886719 145.480469 119.222656 147.046875 116.464844 149.585938 L 92.144531 138.582031 C 92.492188 137.296875 92.695312 135.953125 92.695312 134.558594 C 92.695312 126.027344 85.75 119.082031 77.21875 119.082031 C 68.683594 119.082031 61.738281 126.027344 61.738281 134.558594 C 61.738281 136.9375 62.296875 139.183594 63.257812 141.199219 L 36.636719 166.921875 C 34.839844 166.191406 32.878906 165.777344 30.820312 165.777344 C 22.289062 165.777344 15.34375 172.722656 15.34375 181.257812 C 15.34375 189.789062 22.289062 196.734375 30.820312 196.734375 C 39.355469 196.734375 46.300781 189.789062 46.300781 181.257812 C 46.300781 178.234375 45.417969 175.425781 43.914062 173.039062 L 69.730469 148.097656 C 71.949219 149.328125 74.503906 150.039062 77.21875 150.039062 C 80.890625 150.039062 84.269531 148.746094 86.925781 146.597656 L 111.761719 157.835938 C 111.554688 158.84375 111.445312 159.890625 111.445312 160.960938 C 111.445312 169.496094 118.390625 176.4375 126.921875 176.4375 C 135.457031 176.4375 142.398438 169.496094 142.398438 160.960938 C 142.398438 159.265625 142.117188 157.636719 141.609375 156.105469 L 175.164062 123.683594 C 177.492188 125.082031 180.207031 125.902344 183.113281 125.902344 Z M 183.113281 104.402344 C 186.433594 104.402344 189.136719 107.105469 189.136719 110.425781 C 189.136719 113.75 186.433594 116.449219 183.113281 116.449219 C 179.792969 116.449219 177.089844 113.75 177.089844 110.425781 C 177.089844 107.105469 179.792969 104.402344 183.113281 104.402344 Z M 30.820312 187.28125 C 27.5 187.28125 24.796875 184.578125 24.796875 181.257812 C 24.796875 177.933594 27.5 175.234375 30.820312 175.234375 C 34.140625 175.234375 36.84375 177.933594 36.84375 181.257812 C 36.84375 184.578125 34.140625 187.28125 30.820312 187.28125 Z M 77.214844 140.582031 C 73.894531 140.582031 71.195312 137.882812 71.195312 134.558594 C 71.195312 131.238281 73.894531 128.535156 77.214844 128.535156 C 80.539062 128.535156 83.238281 131.238281 83.238281 134.558594 C 83.238281 137.882812 80.539062 140.582031 77.214844 140.582031 Z M 126.921875 166.984375 C 123.601562 166.984375 120.898438 164.28125 120.898438 160.960938 C 120.898438 157.640625 123.601562 154.9375 126.921875 154.9375 C 130.242188 154.9375 132.945312 157.640625 132.945312 160.960938 C 132.945312 164.28125 130.242188 166.984375 126.921875 166.984375 Z M 126.921875 166.984375 " fill-opacity="1" fill-rule="nonzero"/><path stroke-linecap="butt" transform="matrix(0.75, -0.000000000000000186, 0.000000000000000186, 0.75, 201.718746, 307.651768)" fill="none" stroke-linejoin="miter" d="M 0.00000579493 2.000768 L 213.572936 2.000768 " stroke="#ffde59" stroke-width="4" stroke-opacity="1" stroke-miterlimit="4"/></svg>