<svg xmlns="http://www.w3.org/2000/svg" xmlns:xlink="http://www.w3.org/1999/xlink" width="500" zoomAndPan="magnify" viewBox="0 0 375 374.999991" height="500" preserveAspectRatio="xMidYMid meet" version="1.0"><path fill="#ffde59" d="M 148.238281 172.179688 C 147.074219 173.414062 147.132812 175.359375 148.382812 176.527344 C 152.933594 180.8125 162.550781 183.464844 173.453125 183.464844 C 183.140625 183.464844 191.917969 181.351562 196.925781 177.808594 C 198.316406 176.835938 198.65625 174.917969 197.667969 173.535156 C 196.683594 172.144531 194.765625 171.808594 193.382812 172.792969 C 189.492188 175.542969 181.664062 177.316406 173.453125 177.316406 C 162.921875 177.316406 155.382812 174.664062 152.582031 172.046875 C 151.347656 170.882812 149.402344 170.941406 148.238281 172.179688 " fill-opacity="1" fill-rule="nonzero"/><path fill="#ffde59" d="M 139.855469 120.679688 L 139.855469 112.925781 C 139.855469 111.675781 140.878906 110.65625 142.113281 110.65625 L 143.746094 110.65625 C 144.984375 110.65625 146.003906 111.675781 146.003906 112.925781 L 146.003906 120.679688 C 146.003906 121.929688 144.984375 122.949219 143.746094 122.949219 L 142.113281 122.949219 C 140.878906 122.949219 139.855469 121.929688 139.855469 120.679688 Z M 143.746094 129.097656 C 148.382812 129.097656 152.152344 125.328125 152.152344 120.679688 L 152.152344 112.925781 C 152.152344 108.277344 148.382812 104.507812 143.746094 104.507812 L 142.113281 104.507812 C 137.480469 104.507812 133.710938 108.277344 133.710938 112.925781 L 133.710938 120.679688 C 133.710938 125.328125 137.480469 129.097656 142.113281 129.097656 L 143.746094 129.097656 " fill-opacity="1" fill-rule="nonzero"/><path fill="#ffde59" d="M 207.480469 120.679688 C 207.480469 121.929688 206.457031 122.949219 205.222656 122.949219 L 203.589844 122.949219 C 202.351562 122.949219 201.332031 121.929688 201.332031 120.679688 L 201.332031 112.925781 C 201.332031 111.675781 202.351562 110.65625 203.589844 110.65625 L 205.222656 110.65625 C 206.457031 110.65625 207.480469 111.675781 207.480469 112.925781 Z M 205.222656 104.507812 L 203.589844 104.507812 C 198.953125 104.507812 195.183594 108.277344 195.183594 112.925781 L 195.183594 120.679688 C 195.183594 125.328125 198.953125 129.097656 203.589844 129.097656 L 205.222656 129.097656 C 209.855469 129.097656 213.628906 125.328125 213.628906 120.679688 L 213.628906 112.925781 C 213.628906 108.277344 209.855469 104.507812 205.222656 104.507812 " fill-opacity="1" fill-rule="nonzero"/><path fill="#ffde59" d="M 152.152344 101.109375 C 153.652344 101.109375 154.960938 100.019531 155.1875 98.492188 C 155.441406 96.8125 154.289062 95.25 152.609375 95 L 134.164062 92.25 C 132.484375 91.996094 130.921875 93.160156 130.671875 94.832031 C 130.417969 96.511719 131.570312 98.074219 133.253906 98.324219 L 151.695312 101.074219 C 151.851562 101.097656 152.007812 101.109375 152.152344 101.109375 " fill-opacity="1" fill-rule="nonzero"/><path fill="#ffde59" d="M 195.183594 101.109375 C 195.328125 101.109375 195.484375 101.097656 195.640625 101.074219 L 214.082031 98.324219 C 215.765625 98.074219 216.917969 96.511719 216.664062 94.832031 C 216.414062 93.160156 214.863281 91.996094 213.171875 92.25 L 194.726562 95 C 193.046875 95.25 191.894531 96.8125 192.148438 98.492188 C 192.375 100.019531 193.683594 101.109375 195.183594 101.109375 " fill-opacity="1" fill-rule="nonzero"/><path fill="#ffde59" d="M 333.816406 368.851562 L 271.714844 368.851562 C 265.113281 368.851562 259.734375 363.75 259.734375 357.480469 L 259.734375 350.410156 L 345.800781 350.410156 L 345.800781 357.480469 C 345.800781 363.75 340.421875 368.851562 333.816406 368.851562 Z M 29.199219 353.484375 C 29.199219 313.742188 52.121094 278.824219 86.496094 262.242188 L 81.46875 316.308594 C 81.371094 317.292969 81.753906 318.253906 82.511719 318.914062 L 104.171875 337.875 L 85.8125 350.984375 C 85.082031 351.503906 84.613281 352.332031 84.539062 353.230469 C 84.46875 354.132812 84.792969 355.019531 85.429688 355.65625 L 98.625 368.851562 L 29.199219 368.851562 Z M 140.035156 231.21875 L 169.371094 249.875 L 142.929688 289.546875 L 116.335938 249.648438 Z M 173.667969 221.3125 C 183.730469 221.3125 193.371094 219.511719 202.304688 216.21875 L 202.832031 226.773438 L 173.667969 245.335938 L 144.503906 226.773438 L 145.03125 216.21875 C 153.964844 219.511719 163.605469 221.3125 173.667969 221.3125 Z M 96.824219 138.320312 L 96.824219 114.546875 L 119.804688 74.324219 C 155.164062 83.796875 206.628906 66.457031 218.476562 62.171875 L 250.511719 114.59375 L 250.511719 138.320312 C 250.511719 169.933594 231.324219 197.140625 203.984375 208.921875 C 203.890625 208.957031 203.792969 208.992188 203.710938 209.039062 C 194.476562 212.980469 184.332031 215.164062 173.667969 215.164062 C 163.007812 215.164062 152.847656 212.980469 143.613281 209.039062 C 143.53125 208.992188 143.445312 208.957031 143.363281 208.921875 C 116.023438 197.140625 96.824219 169.933594 96.824219 138.320312 Z M 73.507812 129.949219 C 71.453125 122.890625 71.910156 115.636719 74.742188 110.546875 C 75.871094 108.496094 77.960938 105.839844 81.40625 104.867188 C 84.300781 104.050781 87.542969 104.722656 90.675781 106.597656 L 90.675781 138.320312 C 90.675781 141.429688 90.855469 144.492188 91.191406 147.515625 C 84.15625 147.515625 76.484375 140.167969 73.507812 129.949219 Z M 100.210938 47.96875 C 109.574219 18.417969 152.667969 6.148438 173.667969 6.148438 C 194.667969 6.148438 237.761719 18.417969 247.125 47.96875 C 249.371094 55.050781 250.511719 62.6875 250.511719 70.648438 L 250.511719 102.804688 L 222.390625 56.804688 C 221.625 55.53125 220.050781 55.003906 218.671875 55.53125 C 218.046875 55.773438 156.460938 79.28125 119.253906 67.753906 C 117.882812 67.347656 116.382812 67.921875 115.675781 69.171875 L 96.824219 102.15625 L 96.824219 70.648438 C 96.824219 62.6875 97.964844 55.050781 100.210938 47.96875 Z M 265.929688 104.867188 C 269.375 105.839844 271.464844 108.496094 272.59375 110.546875 C 275.425781 115.636719 275.882812 122.890625 273.828125 129.949219 C 270.851562 140.167969 263.191406 147.527344 256.144531 147.515625 C 256.480469 144.492188 256.660156 141.429688 256.660156 138.320312 L 256.660156 106.597656 C 259.792969 104.722656 263.035156 104.050781 265.929688 104.867188 Z M 231 249.648438 L 204.40625 289.546875 L 177.964844 249.875 L 207.300781 231.21875 Z M 265.882812 252.050781 L 268.953125 252.050781 L 268.953125 267.417969 C 268.953125 269.109375 270.335938 270.492188 272.027344 270.492188 C 273.722656 270.492188 275.101562 269.109375 275.101562 267.417969 L 275.101562 252.050781 L 281.25 252.050781 L 281.25 267.417969 C 281.25 269.109375 282.628906 270.492188 284.324219 270.492188 C 286.015625 270.492188 287.398438 269.109375 287.398438 267.417969 L 287.398438 252.050781 L 293.546875 252.050781 L 293.546875 267.417969 C 293.546875 269.109375 294.925781 270.492188 296.617188 270.492188 C 298.3125 270.492188 299.691406 269.109375 299.691406 267.417969 L 299.691406 252.050781 L 305.839844 252.050781 L 305.839844 267.417969 C 305.839844 269.109375 307.222656 270.492188 308.914062 270.492188 C 310.605469 270.492188 311.988281 269.109375 311.988281 267.417969 L 311.988281 252.050781 L 318.136719 252.050781 L 318.136719 267.417969 C 318.136719 269.109375 319.515625 270.492188 321.210938 270.492188 C 322.902344 270.492188 324.28125 269.109375 324.28125 267.417969 L 324.28125 252.050781 L 330.429688 252.050781 L 330.429688 267.417969 C 330.429688 269.109375 331.800781 270.492188 333.503906 270.492188 C 335.210938 270.492188 336.578125 269.109375 336.578125 267.417969 L 336.578125 252.050781 L 339.652344 252.050781 L 339.652344 276.640625 L 265.882812 276.640625 Z M 333.503906 288.933594 L 272.027344 288.933594 L 272.027344 282.785156 L 333.503906 282.785156 Z M 254.535156 363.027344 C 255.277344 365.191406 256.445312 367.160156 257.945312 368.851562 L 248.710938 368.851562 Z M 243.164062 337.875 L 253.585938 328.75 L 253.585938 345.320312 Z M 265.882812 289.882812 C 265.089844 290.242188 264.296875 290.664062 263.527344 291.144531 L 262.746094 282.773438 C 262.769531 282.773438 262.785156 282.785156 262.808594 282.785156 L 265.882812 282.785156 Z M 167.304688 292.152344 L 180.03125 292.152344 L 185.722656 368.851562 L 161.613281 368.851562 Z M 155.359375 281.980469 L 161.300781 289.992188 L 155.765625 364.542969 L 118.460938 263.910156 L 140.371094 296.785156 C 140.9375 297.640625 141.898438 298.15625 142.929688 298.15625 C 143.964844 298.15625 144.921875 297.640625 145.488281 296.785156 Z M 201.847656 296.785156 C 202.414062 297.640625 203.375 298.15625 204.40625 298.15625 C 205.4375 298.15625 206.398438 297.640625 206.964844 296.785156 L 228.875 263.910156 L 191.570312 364.542969 L 186.035156 289.992188 L 191.980469 281.980469 Z M 173.667969 254.511719 L 188.351562 276.542969 L 181.339844 285.992188 L 165.996094 285.992188 L 158.984375 276.542969 Z M 107.316406 368.851562 L 92.34375 353.878906 L 110.90625 340.613281 C 111.675781 340.070312 112.144531 339.207031 112.191406 338.257812 C 112.242188 337.324219 111.855469 336.421875 111.136719 335.796875 L 87.734375 315.324219 L 92.945312 259.398438 C 97.917969 257.402344 103.078125 255.796875 108.445312 254.582031 L 150.808594 368.851562 Z M 196.527344 368.851562 L 238.878906 254.617188 C 244.171875 255.820312 249.359375 257.417969 254.402344 259.457031 L 257.824219 296.175781 C 255.292969 299.285156 253.585938 303.113281 253.585938 307.183594 L 253.585938 320.585938 L 236.199219 335.796875 C 235.480469 336.421875 235.09375 337.324219 235.144531 338.257812 C 235.191406 339.207031 235.660156 340.070312 236.429688 340.613281 L 253.585938 352.871094 L 253.585938 355.285156 L 240.019531 368.851562 Z M 345.800781 344.261719 L 259.734375 344.261719 L 259.734375 319.671875 L 345.800781 319.671875 Z M 345.800781 307.414062 L 345.800781 313.523438 L 259.734375 313.523438 L 259.734375 307.183594 C 259.734375 301.867188 264.765625 296.644531 269.421875 295.082031 L 336.109375 295.082031 C 340.757812 296.644531 345.800781 302.105469 345.800781 307.414062 Z M 339.652344 289.90625 L 339.652344 282.785156 L 342.726562 282.785156 C 344.429688 282.785156 345.800781 281.40625 345.800781 279.714844 L 345.800781 248.976562 C 345.800781 247.28125 344.429688 245.902344 342.726562 245.902344 L 262.808594 245.902344 C 261.113281 245.902344 259.734375 247.28125 259.734375 248.976562 L 259.734375 255.097656 C 252.769531 252.023438 245.503906 249.707031 238.074219 248.171875 C 237.894531 247.558594 237.570312 246.96875 237.027344 246.550781 L 209.363281 225.035156 C 209.21875 224.914062 209.050781 224.851562 208.882812 224.769531 L 208.332031 213.699219 C 232.371094 202.59375 250.222656 180.355469 255.21875 153.617188 C 255.519531 153.640625 255.808594 153.675781 256.109375 153.675781 C 265.929688 153.675781 275.941406 144.695312 279.738281 131.667969 C 282.234375 123.070312 281.574219 114.054688 277.972656 107.558594 C 275.523438 103.152344 271.933594 100.171875 267.585938 98.949219 C 264.054688 97.964844 260.308594 98.253906 256.660156 99.707031 L 256.660156 70.648438 C 256.660156 62.050781 255.421875 53.804688 252.984375 46.117188 C 247.101562 27.519531 217.804688 0 173.667969 0 C 129.53125 0 100.234375 27.519531 94.351562 46.117188 C 91.914062 53.804688 90.675781 62.050781 90.675781 70.648438 L 90.675781 99.707031 C 87.027344 98.253906 83.28125 97.953125 79.75 98.949219 C 75.402344 100.171875 71.8125 103.152344 69.363281 107.558594 C 65.761719 114.054688 65.101562 123.070312 67.597656 131.667969 C 71.394531 144.695312 81.40625 153.675781 91.230469 153.675781 C 91.527344 153.675781 91.816406 153.640625 92.117188 153.617188 C 97.113281 180.355469 114.964844 202.59375 139.003906 213.699219 L 138.453125 224.769531 C 138.285156 224.851562 138.117188 224.914062 137.972656 225.035156 L 110.308594 246.550781 C 109.777344 246.957031 109.46875 247.523438 109.285156 248.121094 C 59.121094 258.375 23.054688 302.128906 23.054688 353.484375 L 23.054688 371.925781 C 23.054688 373.632812 24.433594 375 26.128906 375 L 333.816406 375 C 343.816406 375 351.945312 367.136719 351.945312 357.480469 L 351.945312 307.414062 C 351.945312 299.835938 345.941406 292.765625 339.652344 289.90625 " fill-opacity="1" fill-rule="nonzero"/><path fill="#ffde59" d="M 327.355469 159.835938 C 334.140625 159.835938 339.652344 165.347656 339.652344 172.132812 C 339.652344 178.914062 334.140625 184.425781 327.355469 184.425781 C 320.574219 184.425781 315.0625 178.914062 315.0625 172.132812 C 315.0625 165.347656 320.574219 159.835938 327.355469 159.835938 Z M 327.355469 190.574219 C 337.527344 190.574219 345.800781 182.300781 345.800781 172.132812 C 345.800781 161.960938 337.527344 153.6875 327.355469 153.6875 C 317.1875 153.6875 308.914062 161.960938 308.914062 172.132812 C 308.914062 182.300781 317.1875 190.574219 327.355469 190.574219 " fill-opacity="1" fill-rule="nonzero"/><path fill="#ffde59" d="M 296.617188 174.078125 L 296.617188 193.648438 L 265.882812 193.648438 L 265.882812 174.078125 C 265.882812 166.222656 272.339844 159.835938 280.277344 159.835938 L 282.222656 159.835938 C 290.160156 159.835938 296.617188 166.222656 296.617188 174.078125 Z M 282.222656 233.605469 L 280.277344 233.605469 C 272.339844 233.605469 265.882812 227.21875 265.882812 219.367188 L 265.882812 199.796875 L 296.617188 199.796875 L 296.617188 219.367188 C 296.617188 227.21875 290.160156 233.605469 282.222656 233.605469 Z M 259.734375 174.078125 L 259.734375 219.367188 C 259.734375 230.617188 268.941406 239.753906 280.277344 239.753906 L 282.222656 239.753906 C 293.546875 239.753906 302.765625 230.617188 302.765625 219.367188 L 302.765625 174.078125 C 302.765625 162.835938 293.546875 153.6875 282.222656 153.6875 L 280.277344 153.6875 C 268.941406 153.6875 259.734375 162.835938 259.734375 174.078125 " fill-opacity="1" fill-rule="nonzero"/><path fill="#ffde59" d="M 324.28125 209.449219 L 324.28125 233.175781 C 319 231.792969 315.0625 227.027344 315.0625 221.3125 C 315.0625 215.597656 319 210.828125 324.28125 209.449219 Z M 339.652344 221.3125 C 339.652344 227.027344 335.726562 231.792969 330.429688 233.175781 L 330.429688 209.449219 C 335.726562 210.828125 339.652344 215.597656 339.652344 221.3125 Z M 327.355469 239.753906 C 337.527344 239.753906 345.800781 231.480469 345.800781 221.3125 C 345.800781 211.140625 337.527344 202.867188 327.355469 202.867188 C 317.1875 202.867188 308.914062 211.140625 308.914062 221.3125 C 308.914062 231.480469 317.1875 239.753906 327.355469 239.753906 " fill-opacity="1" fill-rule="nonzero"/></svg>