<svg xmlns="http://www.w3.org/2000/svg" xmlns:xlink="http://www.w3.org/1999/xlink" width="500" zoomAndPan="magnify" viewBox="0 0 375 374.999991" height="500" preserveAspectRatio="xMidYMid meet" version="1.0"><defs><clipPath id="595df72e51"><path d="M 40.078125 0 L 334.828125 0 L 334.828125 375 L 40.078125 375 Z M 40.078125 0 " clip-rule="nonzero"/></clipPath></defs><g clip-path="url(#595df72e51)"><path fill="#ffde59" d="M 330.898438 97.675781 L 237.148438 3.925781 C 235.890625 2.667969 234.445312 1.699219 232.804688 1.019531 C 231.164062 0.339844 229.453125 0 227.679688 0 L 80.355469 0 C 79.042969 0 77.730469 0.0664062 76.417969 0.195312 C 75.109375 0.324219 73.808594 0.515625 72.519531 0.773438 C 71.226562 1.027344 69.953125 1.347656 68.695312 1.730469 C 67.433594 2.113281 66.195312 2.554688 64.980469 3.058594 C 63.765625 3.5625 62.578125 4.125 61.417969 4.746094 C 60.257812 5.363281 59.128906 6.039062 58.035156 6.769531 C 56.941406 7.503906 55.886719 8.285156 54.867188 9.121094 C 53.851562 9.953125 52.878906 10.835938 51.945312 11.769531 C 51.015625 12.699219 50.132812 13.671875 49.296875 14.691406 C 48.464844 15.707031 47.679688 16.761719 46.949219 17.855469 C 46.21875 18.949219 45.542969 20.078125 44.921875 21.238281 C 44.300781 22.398438 43.742188 23.585938 43.238281 24.804688 C 42.734375 26.019531 42.289062 27.257812 41.910156 28.515625 C 41.527344 29.773438 41.207031 31.050781 40.949219 32.339844 C 40.695312 33.628906 40.5 34.929688 40.371094 36.242188 C 40.242188 37.550781 40.179688 38.863281 40.179688 40.179688 L 40.179688 334.820312 C 40.179688 336.136719 40.242188 337.449219 40.371094 338.757812 C 40.5 340.070312 40.695312 341.371094 40.949219 342.660156 C 41.207031 343.949219 41.527344 345.226562 41.910156 346.484375 C 42.289062 347.742188 42.734375 348.980469 43.238281 350.195312 C 43.742188 351.414062 44.300781 352.601562 44.921875 353.761719 C 45.542969 354.921875 46.21875 356.050781 46.949219 357.144531 C 47.679688 358.238281 48.464844 359.292969 49.296875 360.308594 C 50.132812 361.328125 51.015625 362.300781 51.945312 363.230469 C 52.878906 364.164062 53.851562 365.046875 54.867188 365.878906 C 55.886719 366.714844 56.941406 367.496094 58.035156 368.230469 C 59.128906 368.960938 60.257812 369.636719 61.417969 370.253906 C 62.578125 370.875 63.765625 371.4375 64.980469 371.941406 C 66.195312 372.445312 67.433594 372.886719 68.695312 373.269531 C 69.953125 373.652344 71.226562 373.972656 72.519531 374.226562 C 73.808594 374.484375 75.109375 374.675781 76.417969 374.804688 C 77.730469 374.933594 79.042969 375 80.355469 375 L 294.644531 375 C 295.957031 375 297.273438 374.933594 298.582031 374.804688 C 299.890625 374.675781 301.191406 374.484375 302.480469 374.226562 C 303.773438 373.972656 305.046875 373.652344 306.304688 373.269531 C 307.566406 372.886719 308.804688 372.445312 310.019531 371.941406 C 311.234375 371.4375 312.421875 370.875 313.582031 370.253906 C 314.742188 369.636719 315.871094 368.960938 316.964844 368.230469 C 318.058594 367.496094 319.113281 366.714844 320.132812 365.878906 C 321.148438 365.046875 322.121094 364.164062 323.054688 363.230469 C 323.984375 362.300781 324.867188 361.328125 325.703125 360.308594 C 326.535156 359.292969 327.320312 358.238281 328.050781 357.144531 C 328.78125 356.050781 329.457031 354.921875 330.078125 353.761719 C 330.699219 352.601562 331.257812 351.414062 331.761719 350.195312 C 332.265625 348.980469 332.710938 347.742188 333.089844 346.484375 C 333.472656 345.226562 333.792969 343.949219 334.050781 342.660156 C 334.304688 341.371094 334.5 340.070312 334.628906 338.757812 C 334.757812 337.449219 334.820312 336.136719 334.820312 334.820312 L 334.820312 107.144531 C 334.820312 105.367188 334.480469 103.660156 333.800781 102.019531 C 333.121094 100.378906 332.152344 98.929688 330.898438 97.675781 Z M 241.070312 45.722656 L 289.097656 93.75 L 254.464844 93.75 C 253.585938 93.75 252.714844 93.664062 251.851562 93.492188 C 250.988281 93.320312 250.152344 93.066406 249.339844 92.730469 C 248.527344 92.394531 247.753906 91.980469 247.023438 91.492188 C 246.292969 91.003906 245.617188 90.449219 244.992188 89.828125 C 244.371094 89.207031 243.816406 88.527344 243.328125 87.796875 C 242.839844 87.066406 242.425781 86.292969 242.089844 85.480469 C 241.753906 84.667969 241.5 83.832031 241.328125 82.96875 C 241.15625 82.109375 241.070312 81.238281 241.070312 80.355469 Z M 294.644531 348.214844 L 80.355469 348.214844 C 79.476562 348.214844 78.605469 348.128906 77.746094 347.957031 C 76.882812 347.785156 76.042969 347.53125 75.230469 347.195312 C 74.417969 346.859375 73.648438 346.445312 72.917969 345.957031 C 72.183594 345.46875 71.507812 344.914062 70.886719 344.292969 C 70.265625 343.667969 69.710938 342.992188 69.222656 342.261719 C 68.734375 341.53125 68.320312 340.757812 67.984375 339.945312 C 67.648438 339.132812 67.394531 338.296875 67.222656 337.433594 C 67.050781 336.570312 66.964844 335.699219 66.964844 334.820312 L 66.964844 40.179688 C 66.964844 39.300781 67.050781 38.429688 67.222656 37.566406 C 67.394531 36.703125 67.648438 35.867188 67.984375 35.054688 C 68.320312 34.242188 68.734375 33.46875 69.222656 32.738281 C 69.710938 32.007812 70.265625 31.332031 70.886719 30.707031 C 71.507812 30.085938 72.183594 29.53125 72.917969 29.042969 C 73.648438 28.554688 74.417969 28.140625 75.230469 27.804688 C 76.042969 27.46875 76.882812 27.214844 77.746094 27.042969 C 78.605469 26.871094 79.476562 26.785156 80.355469 26.785156 L 214.285156 26.785156 L 214.285156 80.355469 C 214.285156 81.671875 214.351562 82.984375 214.480469 84.296875 C 214.609375 85.605469 214.800781 86.90625 215.058594 88.195312 C 215.3125 89.484375 215.632812 90.761719 216.015625 92.019531 C 216.398438 93.28125 216.839844 94.515625 217.34375 95.734375 C 217.847656 96.949219 218.410156 98.136719 219.03125 99.296875 C 219.648438 100.457031 220.324219 101.585938 221.058594 102.679688 C 221.789062 103.773438 222.570312 104.828125 223.40625 105.847656 C 224.242188 106.863281 225.125 107.835938 226.054688 108.769531 C 226.984375 109.699219 227.957031 110.582031 228.976562 111.414062 C 229.992188 112.25 231.046875 113.035156 232.140625 113.765625 C 233.238281 114.496094 234.363281 115.171875 235.523438 115.792969 C 236.683594 116.410156 237.871094 116.972656 239.089844 117.476562 C 240.304688 117.980469 241.542969 118.421875 242.800781 118.804688 C 244.058594 119.1875 245.335938 119.507812 246.625 119.765625 C 247.917969 120.019531 249.214844 120.214844 250.527344 120.34375 C 251.835938 120.472656 253.148438 120.535156 254.464844 120.535156 L 308.035156 120.535156 L 308.035156 334.820312 C 308.035156 335.699219 307.949219 336.570312 307.777344 337.433594 C 307.605469 338.296875 307.351562 339.132812 307.015625 339.945312 C 306.679688 340.757812 306.265625 341.53125 305.777344 342.261719 C 305.289062 342.992188 304.734375 343.667969 304.113281 344.292969 C 303.492188 344.914062 302.816406 345.46875 302.082031 345.957031 C 301.351562 346.445312 300.582031 346.859375 299.769531 347.195312 C 298.957031 347.53125 298.117188 347.785156 297.253906 347.957031 C 296.394531 348.128906 295.523438 348.214844 294.644531 348.214844 Z M 294.644531 348.214844 " fill-opacity="1" fill-rule="nonzero"/></g><path fill="#ffde59" d="M 213.722656 290.800781 L 173.542969 156.871094 C 173.339844 156.183594 173.082031 155.519531 172.769531 154.875 C 172.457031 154.230469 172.097656 153.617188 171.683594 153.03125 C 171.273438 152.441406 170.820312 151.894531 170.320312 151.378906 C 169.824219 150.867188 169.285156 150.394531 168.710938 149.96875 C 168.136719 149.542969 167.535156 149.164062 166.898438 148.832031 C 166.265625 148.5 165.605469 148.222656 164.925781 148 C 164.246094 147.773438 163.554688 147.601562 162.847656 147.488281 C 162.140625 147.375 161.429688 147.316406 160.714844 147.316406 C 160 147.316406 159.289062 147.375 158.582031 147.488281 C 157.875 147.601562 157.179688 147.773438 156.5 148 C 155.820312 148.222656 155.164062 148.5 154.53125 148.832031 C 153.894531 149.164062 153.289062 149.542969 152.714844 149.96875 C 152.140625 150.394531 151.605469 150.867188 151.105469 151.378906 C 150.609375 151.894531 150.152344 152.441406 149.742188 153.03125 C 149.332031 153.617188 148.972656 154.230469 148.660156 154.875 C 148.347656 155.519531 148.089844 156.183594 147.882812 156.871094 L 107.707031 290.800781 C 107.453125 291.640625 107.285156 292.5 107.203125 293.375 C 107.117188 294.25 107.121094 295.125 107.210938 296 C 107.300781 296.875 107.472656 297.734375 107.730469 298.574219 C 107.992188 299.414062 108.328125 300.222656 108.746094 300.996094 C 109.164062 301.769531 109.652344 302.496094 110.210938 303.175781 C 110.773438 303.851562 111.394531 304.46875 112.074219 305.027344 C 112.757812 305.582031 113.484375 306.066406 114.261719 306.476562 C 115.039062 306.886719 115.847656 307.222656 116.691406 307.472656 C 117.535156 307.726562 118.394531 307.894531 119.269531 307.976562 C 120.144531 308.058594 121.019531 308.058594 121.894531 307.96875 C 122.769531 307.878906 123.628906 307.703125 124.46875 307.445312 C 125.308594 307.1875 126.117188 306.851562 126.890625 306.433594 C 127.664062 306.015625 128.390625 305.527344 129.066406 304.96875 C 129.746094 304.40625 130.363281 303.785156 130.917969 303.105469 C 131.472656 302.421875 131.957031 301.691406 132.371094 300.914062 C 132.78125 300.140625 133.113281 299.328125 133.367188 298.488281 L 138.535156 281.25 L 182.894531 281.25 L 188.0625 298.488281 C 188.316406 299.328125 188.648438 300.136719 189.058594 300.914062 C 189.472656 301.691406 189.957031 302.421875 190.511719 303.101562 C 191.066406 303.78125 191.683594 304.402344 192.363281 304.964844 C 193.039062 305.523438 193.765625 306.011719 194.539062 306.429688 C 195.3125 306.84375 196.121094 307.183594 196.960938 307.441406 C 197.800781 307.699219 198.660156 307.871094 199.535156 307.960938 C 200.410156 308.050781 201.285156 308.054688 202.160156 307.96875 C 203.035156 307.886719 203.890625 307.71875 204.734375 307.46875 C 205.578125 307.214844 206.386719 306.882812 207.164062 306.472656 C 207.941406 306.058594 208.667969 305.574219 209.351562 305.019531 C 210.03125 304.464844 210.652344 303.847656 211.214844 303.171875 C 211.773438 302.492188 212.261719 301.769531 212.679688 300.992188 C 213.097656 300.21875 213.433594 299.414062 213.691406 298.574219 C 213.953125 297.730469 214.125 296.875 214.214844 296 C 214.304688 295.125 214.308594 294.25 214.226562 293.375 C 214.140625 292.5 213.976562 291.640625 213.722656 290.800781 Z M 146.570312 254.464844 L 160.714844 207.320312 L 174.855469 254.464844 Z M 146.570312 254.464844 " fill-opacity="1" fill-rule="nonzero"/><path fill="#ffde59" d="M 241.070312 308.035156 C 240.191406 308.035156 239.320312 307.949219 238.457031 307.777344 C 237.597656 307.605469 236.757812 307.351562 235.945312 307.015625 C 235.132812 306.679688 234.363281 306.265625 233.628906 305.777344 C 232.898438 305.289062 232.222656 304.734375 231.601562 304.113281 C 230.980469 303.492188 230.425781 302.816406 229.9375 302.082031 C 229.445312 301.351562 229.035156 300.582031 228.699219 299.769531 C 228.363281 298.957031 228.109375 298.117188 227.9375 297.253906 C 227.765625 296.394531 227.679688 295.523438 227.679688 294.644531 L 227.679688 227.679688 C 227.679688 226.800781 227.765625 225.929688 227.9375 225.066406 C 228.109375 224.203125 228.363281 223.367188 228.699219 222.554688 C 229.035156 221.742188 229.445312 220.96875 229.9375 220.238281 C 230.425781 219.507812 230.980469 218.832031 231.601562 218.207031 C 232.222656 217.585938 232.898438 217.03125 233.628906 216.542969 C 234.363281 216.054688 235.132812 215.640625 235.945312 215.304688 C 236.757812 214.96875 237.597656 214.714844 238.457031 214.542969 C 239.320312 214.371094 240.191406 214.285156 241.070312 214.285156 C 241.949219 214.285156 242.820312 214.371094 243.683594 214.542969 C 244.546875 214.714844 245.382812 214.96875 246.195312 215.304688 C 247.007812 215.640625 247.78125 216.054688 248.511719 216.542969 C 249.242188 217.03125 249.917969 217.585938 250.542969 218.207031 C 251.164062 218.832031 251.71875 219.507812 252.207031 220.238281 C 252.695312 220.96875 253.109375 221.742188 253.445312 222.554688 C 253.78125 223.367188 254.035156 224.203125 254.207031 225.066406 C 254.378906 225.929688 254.464844 226.800781 254.464844 227.679688 L 254.464844 294.644531 C 254.464844 295.523438 254.378906 296.394531 254.207031 297.253906 C 254.035156 298.117188 253.78125 298.957031 253.445312 299.769531 C 253.109375 300.582031 252.695312 301.351562 252.207031 302.082031 C 251.71875 302.816406 251.164062 303.492188 250.542969 304.113281 C 249.917969 304.734375 249.242188 305.289062 248.511719 305.777344 C 247.78125 306.265625 247.007812 306.679688 246.195312 307.015625 C 245.382812 307.351562 244.546875 307.605469 243.683594 307.777344 C 242.820312 307.949219 241.949219 308.035156 241.070312 308.035156 Z M 241.070312 308.035156 " fill-opacity="1" fill-rule="nonzero"/><path fill="#ffde59" d="M 254.464844 187.5 C 254.464844 188.378906 254.378906 189.25 254.207031 190.113281 C 254.035156 190.976562 253.78125 191.8125 253.445312 192.625 C 253.109375 193.4375 252.695312 194.210938 252.207031 194.941406 C 251.71875 195.671875 251.164062 196.347656 250.542969 196.96875 C 249.917969 197.59375 249.242188 198.148438 248.511719 198.636719 C 247.78125 199.125 247.007812 199.535156 246.195312 199.875 C 245.382812 200.210938 244.546875 200.464844 243.683594 200.636719 C 242.820312 200.808594 241.949219 200.894531 241.070312 200.894531 C 240.191406 200.894531 239.320312 200.808594 238.457031 200.636719 C 237.597656 200.464844 236.757812 200.210938 235.945312 199.875 C 235.132812 199.535156 234.363281 199.125 233.628906 198.636719 C 232.898438 198.148438 232.222656 197.59375 231.601562 196.96875 C 230.980469 196.347656 230.425781 195.671875 229.9375 194.941406 C 229.445312 194.210938 229.035156 193.4375 228.699219 192.625 C 228.363281 191.8125 228.109375 190.976562 227.9375 190.113281 C 227.765625 189.25 227.679688 188.378906 227.679688 187.5 C 227.679688 186.621094 227.765625 185.75 227.9375 184.886719 C 228.109375 184.023438 228.363281 183.1875 228.699219 182.375 C 229.035156 181.5625 229.445312 180.789062 229.9375 180.058594 C 230.425781 179.328125 230.980469 178.652344 231.601562 178.03125 C 232.222656 177.40625 232.898438 176.851562 233.628906 176.363281 C 234.363281 175.875 235.132812 175.464844 235.945312 175.125 C 236.757812 174.789062 237.597656 174.535156 238.457031 174.363281 C 239.320312 174.191406 240.191406 174.105469 241.070312 174.105469 C 241.949219 174.105469 242.820312 174.191406 243.683594 174.363281 C 244.546875 174.535156 245.382812 174.789062 246.195312 175.125 C 247.007812 175.464844 247.78125 175.875 248.511719 176.363281 C 249.242188 176.851562 249.917969 177.40625 250.542969 178.03125 C 251.164062 178.652344 251.71875 179.328125 252.207031 180.058594 C 252.695312 180.789062 253.109375 181.5625 253.445312 182.375 C 253.78125 183.1875 254.035156 184.023438 254.207031 184.886719 C 254.378906 185.75 254.464844 186.621094 254.464844 187.5 Z M 254.464844 187.5 " fill-opacity="1" fill-rule="nonzero"/></svg>